<svg width="24" height="24" viewBox="0 0 24 24" fill="none" xmlns="http://www.w3.org/2000/svg">
<path d="M12 2.24707C9.62543 2.24702 7.32833 3.09195 5.51977 4.63068C3.7112 6.1694 2.50921 8.30149 2.12888 10.6454C1.74855 12.9893 2.21471 15.3921 3.44394 17.4237C4.67317 19.4554 6.58525 20.9833 8.838 21.7341C9.338 21.8221 9.525 21.5221 9.525 21.2591C9.525 21.0221 9.513 20.2341 9.513 19.3971C7 19.8591 6.35 18.7841 6.15 18.2221C5.92814 17.6748 5.57634 17.1898 5.125 16.8091C4.775 16.6221 4.275 16.1591 5.112 16.1471C5.43188 16.1817 5.7387 16.2929 6.00644 16.4714C6.27417 16.6498 6.49493 16.8902 6.65 17.1721C6.78673 17.4177 6.9706 17.634 7.19107 17.8085C7.41153 17.983 7.66427 18.1123 7.93478 18.1889C8.2053 18.2656 8.48828 18.2881 8.76751 18.2551C9.04674 18.2222 9.31673 18.1345 9.562 17.9971C9.60532 17.4884 9.83206 17.0129 10.2 16.6591C7.975 16.4091 5.65 15.5471 5.65 11.7221C5.63583 10.728 6.00258 9.76628 6.675 9.03407C6.36931 8.17029 6.40508 7.22236 6.775 6.38407C6.775 6.38407 7.612 6.12207 9.525 7.40907C11.1613 6.95902 12.8887 6.95902 14.525 7.40907C16.437 6.10907 17.275 6.38407 17.275 6.38407C17.645 7.22234 17.6808 8.1703 17.375 9.03407C18.0495 9.76502 18.4165 10.7276 18.4 11.7221C18.4 15.5591 16.062 16.4091 13.837 16.6591C14.0757 16.901 14.2595 17.1914 14.3759 17.5106C14.4924 17.8298 14.5388 18.1703 14.512 18.5091C14.512 19.8471 14.5 20.9221 14.5 21.2591C14.5 21.5221 14.687 21.8341 15.187 21.7341C17.4356 20.977 19.342 19.4455 20.5658 17.4128C21.7897 15.3802 22.2513 12.9788 21.8684 10.6373C21.4854 8.29573 20.2828 6.1665 18.4752 4.62965C16.6676 3.0928 14.3726 2.24836 12 2.24707V2.24707Z" fill="black"/>
</svg>
