<svg width="32" height="32" viewBox="0 0 32 32" fill="none" xmlns="http://www.w3.org/2000/svg">
<path d="M12.8934 14.8636H10.268C9.99525 14.8636 9.79636 14.8015 9.67134 14.6775C9.54632 14.5534 9.48381 14.356 9.48381 14.0853V12.0382H6.7732C5.60257 12.0382 4.76154 11.7112 4.25011 11.057C3.75004 10.4028 3.5 9.56817 3.5 8.55308V3.12233C3.5 2.9757 3.51705 2.85163 3.55114 2.75013C3.5966 2.64862 3.65911 2.56402 3.73867 2.49635L5.93785 0.652264C5.99468 0.607149 6.06855 0.573312 6.15947 0.550754C6.26176 0.516918 6.36973 0.5 6.48338 0.5H9.12581C9.39857 0.5 9.59746 0.562033 9.72248 0.6861C9.8475 0.810168 9.91001 1.00755 9.91001 1.27824V2.34409L11.9217 0.652264C11.9785 0.607149 12.0524 0.573312 12.1433 0.550754C12.2456 0.516918 12.3535 0.5 12.4672 0.5H15.0926C15.3653 0.5 15.5642 0.562033 15.6892 0.6861C15.8143 0.810168 15.8768 1.00755 15.8768 1.27824V12.2413C15.8768 12.3879 15.854 12.5119 15.8086 12.6135C15.7745 12.715 15.7177 12.7996 15.6381 12.8672L13.4219 14.6944C13.3764 14.7395 13.3025 14.779 13.2003 14.8128C13.1093 14.8467 13.007 14.8636 12.8934 14.8636ZM11.8535 10.025V12.2413C11.8535 12.4556 11.8989 12.6135 11.9899 12.715C12.0921 12.8052 12.2513 12.8503 12.4672 12.8503H15.0926C15.3085 12.8503 15.4619 12.8052 15.5529 12.715C15.6551 12.6135 15.7063 12.4556 15.7063 12.2413V1.27824C15.7063 1.06394 15.6551 0.911677 15.5529 0.821446C15.4619 0.719937 15.3085 0.669182 15.0926 0.669182H12.4672C12.2513 0.669182 12.0921 0.719937 11.9899 0.821446C11.8989 0.911677 11.8535 1.06394 11.8535 1.27824V6.48906H10.268C10.1089 6.48906 9.9782 6.4383 9.87591 6.33679C9.78499 6.23528 9.73953 6.0943 9.73953 5.91384V1.27824C9.73953 1.06394 9.68839 0.911677 9.5861 0.821446C9.49518 0.719937 9.34175 0.669182 9.12581 0.669182H6.48338C6.26744 0.669182 6.10833 0.719937 6.00604 0.821446C5.91512 0.911677 5.86966 1.06394 5.86966 1.27824V7.21654C5.86966 8.17524 6.10833 8.88581 6.58567 9.34824C7.07438 9.79939 7.86994 10.025 8.97237 10.025H11.8535Z" fill="url(#paint0_linear_405_1071)"/>
<path d="M25.7917 14.8636H17.6769C17.4042 14.8636 17.2053 14.8015 17.0802 14.6775C16.9552 14.5534 16.8927 14.356 16.8927 14.0853V11.1754C16.8927 10.3633 16.9893 9.72044 17.1825 9.24673C17.3757 8.77302 17.6428 8.39518 17.9838 8.11321L20.183 6.26912C20.2739 6.19017 20.3705 6.12249 20.4728 6.0661C20.5751 5.99843 20.683 5.93639 20.7967 5.88H18.3247C18.052 5.88 17.8531 5.81797 17.7281 5.6939C17.603 5.56983 17.5405 5.37245 17.5405 5.10176V3.12233C17.5405 2.9757 17.5576 2.85163 17.5917 2.75013C17.6371 2.64862 17.6997 2.56402 17.7792 2.49635L19.9784 0.652264C20.0352 0.607149 20.1091 0.573312 20.2 0.550754C20.3023 0.516918 20.4103 0.5 20.5239 0.5H25.553C26.5759 0.5 27.3601 0.759413 27.9057 1.27824C28.4512 1.78579 28.724 2.51891 28.724 3.47761V5.06792C28.724 5.58675 28.6387 6.03226 28.4682 6.40446C28.2978 6.77667 28.0534 7.09247 27.7352 7.35189L25.536 9.17906C25.4678 9.22417 25.3939 9.27492 25.3144 9.33132C25.2462 9.38771 25.1723 9.43847 25.0928 9.48358H27.9909C28.2637 9.48358 28.4626 9.54562 28.5876 9.66968C28.7126 9.79375 28.7751 9.99113 28.7751 10.2618V12.2413C28.7751 12.3879 28.7524 12.5119 28.7069 12.6135C28.6728 12.715 28.616 12.7996 28.5364 12.8672L26.3202 14.6944C26.2747 14.7395 26.2009 14.779 26.0986 14.8128C26.0077 14.8467 25.9054 14.8636 25.7917 14.8636ZM27.9909 12.8503C28.2068 12.8503 28.3603 12.8052 28.4512 12.715C28.5535 12.6135 28.6046 12.4556 28.6046 12.2413V10.2618C28.6046 10.0475 28.5535 9.89526 28.4512 9.80503C28.3603 9.70352 28.2068 9.65277 27.9909 9.65277H23.1322V9.29748C23.1322 9.11702 23.1607 8.99859 23.2175 8.9422C23.2857 8.88581 23.405 8.83505 23.5755 8.78994L25.894 8.06245C26.7123 7.81432 27.3601 7.46467 27.8375 7.01352C28.3148 6.56237 28.5535 5.91384 28.5535 5.06792V3.47761C28.5535 2.56402 28.2921 1.87038 27.7693 1.39667C27.2578 0.911677 26.5191 0.669182 25.553 0.669182H20.5239C20.308 0.669182 20.1489 0.719937 20.0466 0.821446C19.9557 0.911677 19.9102 1.06394 19.9102 1.27824V3.25767C19.9102 3.47197 19.9557 3.62987 20.0466 3.73138C20.1489 3.82161 20.308 3.86673 20.5239 3.86673H24.2233C24.3938 3.86673 24.5131 3.90057 24.5813 3.96824C24.6495 4.02463 24.6836 4.13742 24.6836 4.3066C24.6836 4.48706 24.6495 4.62241 24.5813 4.71264C24.5245 4.80287 24.4052 4.87054 24.2233 4.91566L21.9389 5.62623C21.5525 5.73901 21.1945 5.87436 20.8649 6.03226C20.5353 6.19017 20.2512 6.40446 20.0125 6.67516C19.7738 6.94585 19.5863 7.29549 19.4499 7.72409C19.3249 8.1414 19.2624 8.67715 19.2624 9.33132V12.2413C19.2624 12.4556 19.3078 12.6135 19.3988 12.715C19.501 12.8052 19.6602 12.8503 19.8761 12.8503H27.9909Z" fill="url(#paint1_linear_405_1071)"/>
<path d="M7.02891 31.5H4.38649C4.11372 31.5 3.91483 31.438 3.78981 31.3139C3.6648 31.1898 3.60229 30.9925 3.60229 30.7218V19.7587C3.60229 19.6121 3.61934 19.4881 3.65343 19.3865C3.69889 19.285 3.7614 19.2004 3.84096 19.1328L6.04014 17.2887C6.09696 17.2436 6.17084 17.2097 6.26176 17.1872C6.36405 17.1533 6.47202 17.1364 6.58567 17.1364H14.189C14.4618 17.1364 14.6607 17.1985 14.7857 17.3225C14.9107 17.4466 14.9732 17.644 14.9732 17.9147V19.9279C14.9732 20.0746 14.9505 20.1986 14.905 20.3001C14.8709 20.4016 14.8141 20.4862 14.7346 20.5539L12.8252 22.1273C13.0866 22.1273 13.2798 22.1893 13.4048 22.3134C13.5298 22.4375 13.5924 22.6348 13.5924 22.9055V24.9357C13.5924 25.0823 13.5696 25.2064 13.5242 25.3079C13.4901 25.4094 13.4332 25.494 13.3537 25.5617L11.1375 27.3889C11.092 27.434 11.0181 27.4735 10.9158 27.5073C10.8249 27.5411 10.7226 27.5581 10.609 27.5581H10.0123V28.8777C10.0123 29.0243 9.98956 29.1484 9.9441 29.2499C9.91001 29.3514 9.85318 29.436 9.77362 29.5036L7.5574 31.3308C7.51194 31.3759 7.43806 31.4154 7.33578 31.4492C7.24485 31.4831 7.14257 31.5 7.02891 31.5ZM9.22809 29.4867C9.44403 29.4867 9.59746 29.4416 9.68839 29.3514C9.79067 29.2499 9.84182 29.092 9.84182 28.8777V25.5448H12.8082C13.0241 25.5448 13.1775 25.4997 13.2684 25.4094C13.3707 25.3079 13.4219 25.15 13.4219 24.9357V22.9055C13.4219 22.6912 13.3707 22.539 13.2684 22.4487C13.1775 22.3472 13.0241 22.2965 12.8082 22.2965H9.84182V20.537H14.189C14.405 20.537 14.5584 20.4919 14.6493 20.4016C14.7516 20.3001 14.8028 20.1422 14.8028 19.9279V17.9147C14.8028 17.7004 14.7516 17.5481 14.6493 17.4579C14.5584 17.3564 14.405 17.3056 14.189 17.3056H6.58567C6.36973 17.3056 6.21061 17.3564 6.10833 17.4579C6.01741 17.5481 5.97194 17.7004 5.97194 17.9147V28.8777C5.97194 29.092 6.01741 29.2499 6.10833 29.3514C6.21061 29.4416 6.36973 29.4867 6.58567 29.4867H9.22809Z" fill="url(#paint2_linear_405_1071)"/>
<path d="M21.3623 29.4867C21.5783 29.4867 21.7317 29.4416 21.8226 29.3514C21.9249 29.2499 21.9761 29.092 21.9761 28.8777V22.9225L22.9819 24.7665C23.0842 24.9583 23.2035 25.0993 23.3399 25.1895C23.4876 25.2684 23.6695 25.3079 23.8854 25.3079H24.5673C24.7833 25.3079 24.9594 25.2684 25.0958 25.1895C25.2436 25.0993 25.3686 24.9583 25.4709 24.7665L26.4767 22.9225V28.8777C26.4767 29.092 26.5222 29.2499 26.6131 29.3514C26.7154 29.4416 26.8745 29.4867 27.0904 29.4867H29.7158C29.9317 29.4867 30.0852 29.4416 30.1761 29.3514C30.2784 29.2499 30.3295 29.092 30.3295 28.8777V17.9147C30.3295 17.7004 30.2784 17.5481 30.1761 17.4579C30.0852 17.3564 29.9317 17.3056 29.7158 17.3056H26.954C26.7722 17.3056 26.6188 17.3451 26.4937 17.424C26.3801 17.503 26.2721 17.6327 26.1698 17.8131L24.6526 20.5708C24.5957 20.6723 24.5446 20.7456 24.4991 20.7908C24.465 20.8359 24.4139 20.8584 24.3457 20.8584H24.1923C24.1241 20.8584 24.0673 20.8359 24.0218 20.7908C23.9877 20.7456 23.9422 20.6723 23.8854 20.5708L22.3511 17.8131C22.2488 17.6327 22.1352 17.503 22.0101 17.424C21.8965 17.3451 21.7488 17.3056 21.5669 17.3056H18.8222C18.6063 17.3056 18.4471 17.3564 18.3449 17.4579C18.2539 17.5481 18.2085 17.7004 18.2085 17.9147V28.8777C18.2085 29.092 18.2539 29.2499 18.3449 29.3514C18.4471 29.4416 18.6063 29.4867 18.8222 29.4867H21.3623ZM21.9079 29.5036L19.6916 31.3308C19.6462 31.3759 19.5723 31.4154 19.47 31.4492C19.3791 31.4831 19.2768 31.5 19.1632 31.5H16.623C16.3502 31.5 16.1514 31.438 16.0263 31.3139C15.9013 31.1898 15.8388 30.9925 15.8388 30.7218V19.7587C15.8388 19.6121 15.8559 19.4881 15.89 19.3865C15.9354 19.285 15.9979 19.2004 16.0775 19.1328L18.2767 17.2887C18.3335 17.2436 18.4074 17.2097 18.4983 17.1872C18.6006 17.1533 18.7085 17.1364 18.8222 17.1364H21.5669C21.7828 17.1364 21.959 17.1815 22.0954 17.2718C22.2431 17.362 22.3795 17.5143 22.5045 17.7286L23.6638 19.8433L23.8172 19.5726C23.8627 19.4937 23.9081 19.4204 23.9536 19.3527C24.0104 19.2738 24.0673 19.2117 24.1241 19.1666L26.3233 17.3394C26.4142 17.2718 26.5051 17.221 26.596 17.1872C26.6983 17.1533 26.8177 17.1364 26.954 17.1364H29.7158C29.9886 17.1364 30.1875 17.1985 30.3125 17.3225C30.4375 17.4466 30.5 17.644 30.5 17.9147V28.8777C30.5 29.0243 30.4773 29.1484 30.4318 29.2499C30.3977 29.3514 30.3409 29.436 30.2613 29.5036L28.0451 31.3308C27.9996 31.3759 27.9258 31.4154 27.8235 31.4492C27.7326 31.4831 27.6303 31.5 27.5166 31.5H24.8912C24.6071 31.5 24.4025 31.438 24.2775 31.3139C24.1639 31.1898 24.107 30.9925 24.107 30.7218V26.2553L23.1012 27.0843C23.0103 27.1633 22.9023 27.2253 22.7773 27.2704C22.6637 27.3043 22.5273 27.3212 22.3682 27.3212H22.1465V28.8777C22.1465 29.0243 22.1238 29.1484 22.0783 29.2499C22.0442 29.3514 21.9874 29.436 21.9079 29.5036Z" fill="url(#paint3_linear_405_1071)"/>
<path d="M11.8535 10.025V12.2413C11.8535 12.4556 11.8989 12.6135 11.9899 12.715C12.0921 12.8052 12.2513 12.8503 12.4672 12.8503H15.0926C15.3085 12.8503 15.4619 12.8052 15.5529 12.715C15.6551 12.6135 15.7063 12.4556 15.7063 12.2413V1.27824C15.7063 1.06394 15.6551 0.911677 15.5529 0.821446C15.4619 0.719937 15.3085 0.669182 15.0926 0.669182H12.4672C12.2513 0.669182 12.0921 0.719937 11.9899 0.821446C11.8989 0.911677 11.8535 1.06394 11.8535 1.27824V6.48906H10.268C10.1089 6.48906 9.9782 6.4383 9.87591 6.33679C9.78499 6.23528 9.73953 6.0943 9.73953 5.91384V1.27824C9.73953 1.06394 9.68839 0.911677 9.5861 0.821446C9.49518 0.719937 9.34175 0.669182 9.12581 0.669182H6.48338C6.26744 0.669182 6.10833 0.719937 6.00604 0.821446C5.91512 0.911677 5.86966 1.06394 5.86966 1.27824V7.21654C5.86966 8.17524 6.10833 8.88581 6.58567 9.34824C7.07438 9.79939 7.86994 10.025 8.97237 10.025H11.8535Z" fill="white"/>
<path d="M27.9909 12.8503C28.2068 12.8503 28.3603 12.8052 28.4512 12.715C28.5535 12.6135 28.6046 12.4556 28.6046 12.2413V10.2618C28.6046 10.0475 28.5535 9.89526 28.4512 9.80503C28.3603 9.70352 28.2068 9.65277 27.9909 9.65277H23.1322V9.29748C23.1322 9.11702 23.1607 8.99859 23.2175 8.9422C23.2857 8.88581 23.405 8.83505 23.5755 8.78994L25.894 8.06245C26.7123 7.81432 27.3601 7.46467 27.8375 7.01352C28.3148 6.56237 28.5535 5.91384 28.5535 5.06792V3.47761C28.5535 2.56402 28.2921 1.87038 27.7693 1.39667C27.2578 0.911677 26.5191 0.669182 25.553 0.669182H20.5239C20.308 0.669182 20.1489 0.719937 20.0466 0.821446C19.9557 0.911677 19.9102 1.06394 19.9102 1.27824V3.25767C19.9102 3.47197 19.9557 3.62987 20.0466 3.73138C20.1489 3.82161 20.308 3.86673 20.5239 3.86673H24.2233C24.3938 3.86673 24.5131 3.90057 24.5813 3.96824C24.6495 4.02463 24.6836 4.13742 24.6836 4.3066C24.6836 4.48706 24.6495 4.62241 24.5813 4.71264C24.5245 4.80287 24.4052 4.87054 24.2233 4.91566L21.9389 5.62623C21.5525 5.73901 21.1945 5.87436 20.8649 6.03226C20.5353 6.19017 20.2512 6.40446 20.0125 6.67516C19.7738 6.94585 19.5863 7.29549 19.4499 7.72409C19.3249 8.1414 19.2624 8.67715 19.2624 9.33132V12.2413C19.2624 12.4556 19.3078 12.6135 19.3988 12.715C19.501 12.8052 19.6602 12.8503 19.8761 12.8503H27.9909Z" fill="white"/>
<path d="M21.3623 29.4867C21.5783 29.4867 21.7317 29.4416 21.8226 29.3514C21.9249 29.2499 21.9761 29.092 21.9761 28.8777V22.9225L22.9819 24.7665C23.0842 24.9583 23.2035 25.0993 23.3399 25.1895C23.4876 25.2684 23.6695 25.3079 23.8854 25.3079H24.5673C24.7833 25.3079 24.9594 25.2684 25.0958 25.1895C25.2436 25.0993 25.3686 24.9583 25.4709 24.7665L26.4767 22.9225V28.8777C26.4767 29.092 26.5222 29.2499 26.6131 29.3514C26.7154 29.4416 26.8745 29.4867 27.0904 29.4867H29.7158C29.9317 29.4867 30.0852 29.4416 30.1761 29.3514C30.2784 29.2499 30.3295 29.092 30.3295 28.8777V17.9147C30.3295 17.7004 30.2784 17.5481 30.1761 17.4579C30.0852 17.3564 29.9317 17.3056 29.7158 17.3056H26.954C26.7722 17.3056 26.6188 17.3451 26.4937 17.424C26.3801 17.503 26.2721 17.6327 26.1698 17.8131L24.6526 20.5708C24.5957 20.6723 24.5446 20.7456 24.4991 20.7908C24.465 20.8359 24.4139 20.8584 24.3457 20.8584H24.1923C24.1241 20.8584 24.0673 20.8359 24.0218 20.7908C23.9877 20.7456 23.9422 20.6723 23.8854 20.5708L22.3511 17.8131C22.2488 17.6327 22.1352 17.503 22.0101 17.424C21.8965 17.3451 21.7488 17.3056 21.5669 17.3056H18.8222C18.6063 17.3056 18.4471 17.3564 18.3449 17.4579C18.2539 17.5481 18.2085 17.7004 18.2085 17.9147V28.8777C18.2085 29.092 18.2539 29.2499 18.3449 29.3514C18.4471 29.4416 18.6063 29.4867 18.8222 29.4867H21.3623Z" fill="white"/>
<path d="M9.22809 29.4867C9.44403 29.4867 9.59746 29.4416 9.68839 29.3514C9.79067 29.2499 9.84182 29.092 9.84182 28.8777V25.5448H12.8082C13.0241 25.5448 13.1775 25.4997 13.2684 25.4094C13.3707 25.3079 13.4219 25.15 13.4219 24.9357V22.9055C13.4219 22.6912 13.3707 22.539 13.2684 22.4487C13.1775 22.3472 13.0241 22.2965 12.8082 22.2965H9.84182V20.537H14.189C14.405 20.537 14.5584 20.4919 14.6493 20.4016C14.7516 20.3001 14.8028 20.1422 14.8028 19.9279V17.9147C14.8028 17.7004 14.7516 17.5481 14.6493 17.4579C14.5584 17.3564 14.405 17.3056 14.189 17.3056H6.58567C6.36973 17.3056 6.21061 17.3564 6.10833 17.4579C6.01741 17.5481 5.97194 17.7004 5.97194 17.9147V28.8777C5.97194 29.092 6.01741 29.2499 6.10833 29.3514C6.21061 29.4416 6.36973 29.4867 6.58567 29.4867H9.22809Z" fill="white"/>
<defs>
<linearGradient id="paint0_linear_405_1071" x1="30.5" y1="0.5" x2="-0.206509" y2="27.2444" gradientUnits="userSpaceOnUse">
<stop stop-color="#FF00F5"/>
<stop offset="1" stop-color="#FF7A00"/>
</linearGradient>
<linearGradient id="paint1_linear_405_1071" x1="30.5" y1="0.5" x2="-0.206509" y2="27.2444" gradientUnits="userSpaceOnUse">
<stop stop-color="#FF00F5"/>
<stop offset="1" stop-color="#FF7A00"/>
</linearGradient>
<linearGradient id="paint2_linear_405_1071" x1="30.5" y1="0.5" x2="-0.206509" y2="27.2444" gradientUnits="userSpaceOnUse">
<stop stop-color="#FF00F5"/>
<stop offset="1" stop-color="#FF7A00"/>
</linearGradient>
<linearGradient id="paint3_linear_405_1071" x1="30.5" y1="0.5" x2="-0.206509" y2="27.2444" gradientUnits="userSpaceOnUse">
<stop stop-color="#FF00F5"/>
<stop offset="1" stop-color="#FF7A00"/>
</linearGradient>
</defs>
</svg>
